<svg width="105" viewBox="0 0 204 49" fill="none" xmlns="http://www.w3.org/2000/svg">
<path d="M78.6335 32.2485L71.0493 12.0881H64.5486L56.9945 32.2485H62.8632L63.8564 29.3469H71.7716L72.7648 32.2485H78.6335ZM70.3571 24.813H65.2408L67.7989 17.2264L70.3571 24.813Z" fill="#313131"/>
<path d="M86.978 32.6112C90.108 32.6112 92.0643 31.1906 92.937 29.9211L89.9274 27.0799C89.3556 27.896 88.4226 28.5005 87.1887 28.5005C85.2626 28.5005 83.7879 27.1404 83.7879 24.9339C83.7879 22.7275 85.2626 21.3976 87.1887 21.3976C88.4226 21.3976 89.3556 21.9416 89.9274 22.7879L92.937 19.977C92.0643 18.6773 90.108 17.2869 86.978 17.2869C82.4336 17.2869 79.0327 20.3699 79.0327 24.9339C79.0327 29.5282 82.4336 32.6112 86.978 32.6112Z" fill="#313131"/>
<path d="M102.026 32.6112C105.156 32.6112 107.112 31.1906 107.985 29.9211L104.975 27.0799C104.404 27.896 103.471 28.5005 102.237 28.5005C100.311 28.5005 98.8358 27.1404 98.8358 24.9339C98.8358 22.7275 100.311 21.3976 102.237 21.3976C103.471 21.3976 104.404 21.9416 104.975 22.7879L107.985 19.977C107.112 18.6773 105.156 17.2869 102.026 17.2869C97.4815 17.2869 94.0807 20.3699 94.0807 24.9339C94.0807 29.5282 97.4815 32.6112 102.026 32.6112Z" fill="#313131"/>
<path d="M117.074 32.6112C119.301 32.6112 121.709 31.9765 123.153 30.6768L121.197 27.7751C120.385 28.561 118.609 29.0144 117.586 29.0144C115.479 29.0144 114.215 27.7751 113.944 26.415H124.297V25.4175C124.297 20.4606 121.167 17.2869 116.863 17.2869C112.319 17.2869 109.129 20.7024 109.129 24.9339C109.129 29.6793 112.59 32.6112 117.074 32.6112ZM119.873 23.3924H113.884C114.064 22.3345 114.847 20.8837 116.863 20.8837C119 20.8837 119.752 22.3648 119.873 23.3924Z" fill="#313131"/>
<path d="M132.148 32.6112C136.331 32.6112 138.769 30.5559 138.769 27.7751C138.769 21.7905 130.312 23.4529 130.312 21.7603C130.312 21.1558 131.064 20.7024 132.148 20.7024C133.893 20.7024 135.548 21.458 136.421 22.3043L138.197 19.2213C136.632 18.0728 134.555 17.2869 132.117 17.2869C128.085 17.2869 125.888 19.5236 125.888 22.0927C125.888 27.9565 134.345 26.0825 134.345 27.9867C134.345 28.6517 133.773 29.1051 132.388 29.1051C130.673 29.1051 128.355 28.1378 127.272 27.1706L125.346 30.3745C126.881 31.7347 129.559 32.6112 132.148 32.6112Z" fill="#313131"/>
<path d="M146.725 32.6112C150.909 32.6112 153.346 30.5559 153.346 27.7751C153.346 21.7905 144.889 23.4529 144.889 21.7603C144.889 21.1558 145.642 20.7024 146.725 20.7024C148.471 20.7024 150.126 21.458 150.999 22.3043L152.775 19.2213C151.21 18.0728 149.133 17.2869 146.695 17.2869C142.662 17.2869 140.465 19.5236 140.465 22.0927C140.465 27.9565 148.922 26.0825 148.922 27.9867C148.922 28.6517 148.35 29.1051 146.966 29.1051C145.251 29.1051 142.933 28.1378 141.85 27.1706L139.924 30.3745C141.458 31.7347 144.137 32.6112 146.725 32.6112Z" fill="#313131"/>
<path d="M158.053 16.3499C159.527 16.3499 160.701 15.1409 160.701 13.6598C160.701 12.1788 159.527 11 158.053 11C156.578 11 155.404 12.1788 155.404 13.6598C155.404 15.1409 156.578 16.3499 158.053 16.3499ZM160.37 32.2485V17.6496H155.735V32.2485H160.37Z" fill="#313131"/>
<path d="M168.364 27.2008V22.7275C168.936 21.9416 170.14 21.3976 171.133 21.3976C172.969 21.3976 174.353 22.7577 174.353 24.9339C174.353 27.1404 172.969 28.5005 171.133 28.5005C170.14 28.5005 168.936 27.9867 168.364 27.2008ZM168.364 32.2485V30.5559C169.568 31.9462 171.043 32.6112 172.668 32.6112C176.249 32.6112 179.078 29.8909 179.078 24.9339C179.078 20.1583 176.279 17.2869 172.668 17.2869C171.073 17.2869 169.508 17.9216 168.364 19.3725V12.0881H163.729V32.2485H168.364Z" fill="#313131"/>
<path d="M186.146 32.2485V12.0881H181.511V32.2485H186.146Z" fill="#313131"/>
<path d="M189.204 37.9309C189.686 38.082 190.769 38.1727 191.19 38.1727C193.959 38.1122 196.156 37.4171 197.33 34.3341L203.891 17.6496H198.985L195.675 26.8986L192.394 17.6496H187.519L193.297 32.4601L192.966 33.2459C192.725 33.8505 192.063 34.062 191.01 34.062C190.649 34.062 190.197 33.9714 189.866 33.79L189.204 37.9309Z" fill="#313131"/>
<path d="M46.8953 24.56C46.8953 37.0083 36.8472 47.0997 24.4522 47.0997C12.0573 47.0997 2.00916 37.0083 2.00916 24.56C2.00916 12.1117 12.0573 2.02037 24.4522 2.02037C36.8472 2.02037 46.8953 12.1117 46.8953 24.56Z" fill="white"/>
<path d="M24.2962 3.93561C20.5734 3.93561 17.1445 4.91951 14.0095 6.69053C10.8745 8.55994 8.42529 11.0197 6.66186 14.1682C4.80046 17.3167 3.91874 20.6619 3.91874 24.4008C3.91874 28.1396 4.80046 31.5832 6.66186 34.7317C8.42529 37.8802 10.8745 40.34 14.0095 42.111C17.1445 43.9804 20.5734 44.8659 24.2962 44.8659C28.019 44.8659 31.3499 43.9804 34.4849 42.111C37.6199 40.34 40.0691 37.8802 41.9305 34.7317C43.6939 31.5832 44.6736 28.1396 44.6736 24.4008C44.6736 20.6619 43.6939 17.3167 41.9305 14.1682C40.0691 11.0197 37.6199 8.55994 34.4849 6.69053C31.3499 4.91951 28.019 3.93561 24.2962 3.93561ZM24.2962 0C28.6068 0 32.7215 1.18068 36.4443 3.34527C40.1671 5.50985 43.1061 8.46155 45.2614 12.2004C47.4167 15.9392 48.5924 20.0716 48.5924 24.4008C48.5924 28.8283 47.4167 32.8623 45.2614 36.6011C43.1061 40.34 40.1671 43.3901 36.4443 45.5546C32.7215 47.7192 28.6068 48.8015 24.2962 48.8015C19.8876 48.8015 15.8709 47.7192 12.1481 45.5546C8.42529 43.3901 5.38827 40.34 3.23296 36.6011C1.07765 32.8623 0 28.8283 0 24.4008C0 20.0716 1.07765 15.9392 3.23296 12.2004C5.38827 8.46155 8.42529 5.50985 12.1481 3.34527C15.8709 1.18068 19.8876 0 24.2962 0ZM24.2962 5.50985C27.6271 5.50985 30.7621 6.39536 33.7012 8.06799C36.5422 9.83901 38.7955 12.102 40.559 14.9553C42.2244 17.907 43.1061 21.0555 43.1061 24.4008C43.1061 27.8444 42.2244 30.9929 40.559 33.8462C38.7955 36.7979 36.5422 39.0609 33.7012 40.7335C30.7621 42.5045 27.6271 43.2917 24.2962 43.2917C20.8673 43.2917 17.7323 42.5045 14.8912 40.7335C11.9522 39.0609 9.69888 36.7979 8.03341 33.8462C6.26998 30.9929 5.48624 27.8444 5.48624 24.4008C5.48624 21.0555 6.26998 17.907 8.03341 14.9553C9.69888 12.102 11.9522 9.83901 14.8912 8.06799C17.7323 6.39536 20.8673 5.50985 24.2962 5.50985ZM24.2962 9.83902C23.3165 9.83902 22.4348 10.2326 21.749 10.9213C21.0632 11.61 20.7693 12.3972 20.7693 13.3811C20.7693 14.365 21.0632 15.2505 21.749 15.9392C22.4348 16.6279 23.3165 16.9231 24.2962 16.9231C25.2759 16.9231 26.0596 16.6279 26.7454 15.9392C27.4312 15.2505 27.823 14.365 27.823 13.3811C27.823 12.3972 27.4312 11.61 26.7454 10.9213C26.0596 10.2326 25.2759 9.83902 24.2962 9.83902ZM35.8565 19.4812C36.2483 19.4812 36.5422 19.1861 36.7382 18.7925C36.9341 18.399 37.0321 18.0054 36.9341 17.6118C36.8362 17.2183 36.6402 16.8247 36.2483 16.6279C35.8565 16.4312 35.4646 16.3328 35.0727 16.4312C31.7418 17.2183 29.1946 17.7102 27.4312 17.907C25.2759 18.2022 23.2185 18.2022 21.1612 17.907C19.2998 17.7102 16.7526 17.2183 13.5197 16.4312C13.0298 16.3328 12.6379 16.4312 12.2461 16.6279C11.8542 16.8247 11.6582 17.2183 11.5603 17.6118C11.4623 18.0054 11.5603 18.399 11.7562 18.7925C11.9522 19.1861 12.344 19.3829 12.7359 19.4812C16.1648 20.2684 18.8099 20.8587 20.7693 21.0555C20.7693 25.1879 20.4754 28.4348 20.0835 30.7961C19.7896 32.272 19.2998 33.9446 18.614 35.7156L18.3201 36.306C18.1242 36.7979 18.2221 37.2899 18.4181 37.6834C18.614 38.1754 18.9079 38.4705 19.3978 38.6673C19.7896 38.8641 20.2795 38.7657 20.6714 38.5689C21.0632 38.3722 21.4551 38.077 21.651 37.6834L21.9449 36.9947C22.3368 35.814 22.7287 34.7317 23.0226 33.9446C23.3165 32.7639 23.6104 31.4848 23.8063 29.9106H24.786C24.982 31.4848 25.1779 32.7639 25.5698 33.9446C25.7657 34.7317 26.1576 35.814 26.6474 36.9947L26.9413 37.6834C27.1373 38.077 27.4312 38.3722 27.823 38.5689C28.2149 38.7657 28.7048 38.8641 29.1946 38.6673C29.5865 38.4705 29.9784 38.1754 30.1743 37.6834C30.3702 37.2899 30.3702 36.7979 30.2723 36.306L29.9784 35.7156C29.1946 33.9446 28.7048 32.272 28.5088 30.7961C28.019 28.4348 27.823 25.1879 27.823 21.0555C29.6845 20.8587 32.3296 20.2684 35.8565 19.4812Z" fill="#574CD5"/>
</svg>
